<svg width="21" height="21" viewBox="0 0 21 21" fill="none" xmlns="http://www.w3.org/2000/svg">
<g clip-path="url(#clip0_1179_443)">
<path d="M4.92178 0.0451176C4.32295 0.110743 3.74053 0.397852 3.29756 0.836719C2.51006 1.62832 2.28857 2.82188 2.74795 3.80625C2.81357 3.9498 2.871 4.07695 2.871 4.08516C2.871 4.09336 2.47314 4.10156 1.98916 4.10156C1.20166 4.10156 1.08682 4.10977 0.885839 4.1877C0.586425 4.29844 0.278808 4.58145 0.135253 4.87266L0.0204095 5.10645L0.00810478 6.37793C-0.0041999 7.64531 -0.0041999 7.64941 0.090136 7.82988C0.159863 7.95703 0.245995 8.04316 0.369042 8.10879L0.545409 8.20312H10.4999H20.4544L20.6308 8.10879C20.7538 8.04316 20.8399 7.95703 20.9097 7.82988C21.004 7.64941 21.004 7.64531 20.9917 6.37793L20.9794 5.10645L20.8645 4.87266C20.721 4.58145 20.4134 4.29844 20.114 4.1877C19.913 4.10977 19.7981 4.10156 19.0106 4.10156C18.5267 4.10156 18.1288 4.09336 18.1288 4.08105C18.1288 4.06875 18.1739 3.97031 18.2272 3.86367C18.6333 3.06387 18.5554 2.02617 18.0304 1.23867C17.1731 -0.0533199 15.3931 -0.365039 14.1667 0.557813C13.9944 0.689063 12.727 1.81699 12.1528 2.3543L12.0175 2.47734L11.8862 2.3502C11.5212 2.00156 11.0536 1.8252 10.4999 1.8252C9.95029 1.8252 9.60986 1.95234 9.1751 2.30918L8.97822 2.46914L8.88799 2.39121C8.83877 2.34609 8.37529 1.92363 7.85439 1.45605C7.3376 0.984375 6.80439 0.529102 6.66904 0.447071C6.16455 0.114844 5.54521 -0.024609 4.92178 0.0451176ZM5.80361 1.52578C5.92666 1.59141 6.49267 2.07129 7.21865 2.72754C8.30967 3.71602 8.42861 3.83906 8.44092 3.96621L8.45322 4.10566L6.69775 4.09336C5.11865 4.08105 4.92178 4.07285 4.74541 4.00313C4.4583 3.89238 4.13838 3.58066 3.99892 3.27715C3.89639 3.04746 3.88818 2.99004 3.90459 2.67012C3.9333 2.06309 4.23271 1.67344 4.83154 1.44785C5.06943 1.36172 5.55342 1.39863 5.80361 1.52578ZM16.3815 1.55449C16.7015 1.71035 16.9353 1.97285 17.0419 2.30098C17.1403 2.59219 17.1116 3.06797 16.9845 3.32227C16.8532 3.58066 16.5292 3.87598 16.2503 3.98672C16.0206 4.07695 15.9796 4.08105 14.2856 4.09336L12.5507 4.10566V3.97031C12.5507 3.85137 12.5958 3.79395 12.8911 3.53145C13.0757 3.36328 13.5843 2.90391 14.0231 2.50605C14.462 2.1082 14.8927 1.73086 14.9829 1.66113C15.3972 1.35762 15.9017 1.3166 16.3815 1.55449Z" fill="url(#paint0_linear_1179_443)"/>
<path d="M1.36968 9.60981C1.36147 9.63852 1.35737 11.9682 1.36147 14.786L1.37378 19.9129L1.48042 20.1426C1.7019 20.6102 2.06284 20.8809 2.56733 20.9588C2.7519 20.9875 3.92905 20.9998 5.98804 20.9916L9.12573 20.9793V15.2782V9.577L5.25796 9.56469C2.12436 9.55649 1.38608 9.56469 1.36968 9.60981Z" fill="url(#paint1_linear_1179_443)"/>
<path d="M11.8737 9.60571C11.8614 9.63442 11.8573 12.2061 11.8614 15.3192L11.8737 20.9793L15.0114 20.9916C17.0704 20.9998 18.2475 20.9875 18.4321 20.9588C18.9366 20.8809 19.2975 20.6102 19.519 20.1426L19.6257 19.9129V14.745V9.577L15.7579 9.56469C12.6858 9.55649 11.886 9.56469 11.8737 9.60571Z" fill="url(#paint2_linear_1179_443)"/>
</g>
<defs>
<linearGradient id="paint0_linear_1179_443" x1="0.00244125" y1="4.11472" x2="20.9974" y2="4.11472" gradientUnits="userSpaceOnUse">
<stop stop-color="#FFC700"/>
<stop offset="1" stop-color="#CA84FF"/>
</linearGradient>
<linearGradient id="paint1_linear_1179_443" x1="1.35986" y1="15.278" x2="9.12573" y2="15.278" gradientUnits="userSpaceOnUse">
<stop stop-color="#FFC700"/>
<stop offset="1" stop-color="#CA84FF"/>
</linearGradient>
<linearGradient id="paint2_linear_1179_443" x1="11.8599" y1="15.278" x2="19.6257" y2="15.278" gradientUnits="userSpaceOnUse">
<stop stop-color="#FFC700"/>
<stop offset="1" stop-color="#CA84FF"/>
</linearGradient>
<clipPath id="clip0_1179_443">
<rect width="21" height="21" fill="white"/>
</clipPath>
</defs>
</svg>
