<svg width="52" height="52" viewBox="0 0 52 52" fill="none" xmlns="http://www.w3.org/2000/svg">
<g clip-path="url(#clip0_1174_432)">
<path d="M24.172 0.060837C23.979 0.0811495 23.3798 0.152243 22.8517 0.203024C19.5001 0.56865 15.7931 1.82802 12.797 3.61552C8.98838 5.89052 5.89072 8.98818 3.61572 12.7968C1.83838 15.7624 0.660254 19.2155 0.18291 22.8515C0.0204102 24.1007 0.0204102 27.8991 0.18291 29.1483C1.01572 35.4757 3.79854 40.828 8.51103 45.2054C11.111 47.6327 14.3509 49.5218 17.8751 50.6796C20.6579 51.6038 22.8618 51.939 26.0001 51.939C28.3157 51.939 29.3415 51.8476 31.3829 51.4312C38.3806 49.9991 44.6267 45.5101 48.3845 39.203C50.1618 36.2374 51.3399 32.7843 51.8173 29.1483C51.9798 27.8991 51.9798 24.1007 51.8173 22.8515C51.3399 19.2155 50.1618 15.7624 48.3845 12.7968C46.1095 8.98818 43.0118 5.89052 39.2032 3.61552C36.2681 1.85849 32.7642 0.660056 29.2501 0.203024C28.3563 0.0811495 24.8017 -0.0102568 24.172 0.060837ZM28.0821 3.14834C34.0032 3.69677 39.7212 6.67256 43.4892 11.1718C48.4353 17.0726 50.111 24.7507 48.0798 32.1647C47.2978 35.0187 45.9165 37.7507 44.0376 40.1374C43.6923 40.5741 43.3978 40.9296 43.3673 40.9296C43.3368 40.9296 43.1743 40.4929 43.0118 39.9546C42.1485 37.0702 40.1376 33.9726 37.8118 31.9312C36.3493 30.6515 34.3485 29.4226 32.5509 28.6913L32.1446 28.5288L32.5001 28.2647C33.1399 27.7874 34.6938 26.1522 35.0696 25.5632C36.5118 23.3187 37.1212 20.8913 36.8673 18.4132C36.4915 14.696 34.3181 11.4968 31.0274 9.78037C24.1821 6.22568 15.9149 10.7046 15.1329 18.4132C14.9298 20.414 15.3157 22.5163 16.2095 24.2937C16.9306 25.7257 18.129 27.2085 19.3071 28.1022C19.5813 28.3054 19.8048 28.5085 19.8048 28.539C19.8048 28.5694 19.4696 28.7218 19.0634 28.8843C16.3212 29.9913 13.579 32.1444 11.6595 34.6835C10.5524 36.1562 9.49619 38.228 8.97822 39.9647C8.82588 40.4929 8.66338 40.9296 8.63291 40.9296C8.55166 40.9296 7.39385 39.4265 6.81494 38.5632C6.1751 37.6085 5.04775 35.4147 4.59072 34.2468C3.79854 32.2358 3.30088 29.9101 3.12822 27.3913C2.6001 20.1093 5.88057 12.7155 11.6493 8.11474C16.311 4.39756 22.222 2.61006 28.0821 3.14834ZM28.1329 11.8827C30.7431 12.6241 32.7845 14.6655 33.5767 17.3163C33.9321 18.5249 33.9524 20.2515 33.6376 21.4397C32.6931 24.964 29.6259 27.3202 26.0001 27.3202C22.3743 27.3202 19.3071 24.964 18.3626 21.4397C18.0478 20.2515 18.0681 18.5249 18.4235 17.3163C19.3173 14.3101 21.6329 12.2687 24.8829 11.639C25.472 11.5272 27.3915 11.6694 28.1329 11.8827ZM28.0821 30.6819C31.2306 31.0882 34.0134 32.4897 36.4204 34.8866C38.2282 36.6944 39.3657 38.5226 40.097 40.828C40.361 41.6507 40.7774 43.5804 40.6962 43.621C40.686 43.6312 40.3813 43.8647 40.0157 44.1491C36.8876 46.5866 33.1196 48.1507 28.8946 48.7601C27.7165 48.9327 24.2837 48.9327 23.1056 48.7601C18.8806 48.1507 15.1126 46.5866 11.9845 44.1491C11.6188 43.8647 11.3142 43.6312 11.304 43.621C11.2837 43.6108 11.3446 43.2249 11.4259 42.7679C12.3501 37.5171 16.1079 33.1194 21.186 31.3522C23.4306 30.5702 25.5634 30.3569 28.0821 30.6819Z" fill="url(#paint0_linear_1174_432)"/>
</g>
<defs>
<linearGradient id="paint0_linear_1174_432" x1="0.0610348" y1="25.9874" x2="51.9392" y2="25.9874" gradientUnits="userSpaceOnUse">
<stop stop-color="#FFC700"/>
<stop offset="1" stop-color="#CA84FF"/>
</linearGradient>
<clipPath id="clip0_1174_432">
<rect width="52" height="52" fill="white"/>
</clipPath>
</defs>
</svg>
