<svg width="87" height="87" viewBox="0 0 87 87" fill="none" xmlns="http://www.w3.org/2000/svg">
<path d="M22.2663 16.6665C9.99967 25.4665 2.66634 31.7332 2.13301 33.5998C1.06634 37.5998 1.06634 80.5332 2.13301 83.1998C2.79967 84.9332 5.59967 85.3332 18.6663 85.3332C36.7997 85.3332 35.9997 85.9998 35.9997 71.4665C35.9997 61.0665 37.9997 57.3332 43.5997 57.3332C48.6663 57.3332 50.533 61.3332 50.933 73.3332L51.333 84.6665H67.9997H84.6663L85.0663 59.5998C85.1997 45.1998 84.7997 33.5998 84.133 32.1332C82.3997 29.0665 46.133 2.66652 43.5997 2.66652C42.533 2.66652 32.933 8.93318 22.2663 16.6665ZM61.4663 22.9332L77.9997 35.3332L78.3997 56.9332L78.6663 78.6665H68.6663H58.6663V72.2665C58.6663 62.2665 56.3997 56.2665 51.5997 53.3332C46.3997 50.1332 40.933 49.9998 35.9997 52.9332C30.933 55.8665 29.333 59.8665 29.333 70.1332V78.7998L19.0663 78.3998L8.66634 77.9998L8.26634 57.0665L7.86634 36.1332L12.933 32.1332C22.6663 24.3998 41.9997 10.7998 43.4663 10.6665C44.2663 10.6665 52.2663 16.2665 61.4663 22.9332Z" fill="black"/>
</svg>
