<svg width="78" height="79" viewBox="0 0 78 79" fill="none" xmlns="http://www.w3.org/2000/svg">
<g clip-path="url(#clip0_1204_500)">
<path d="M1.33301 6.6665C1.33301 8.93317 2.26634 9.33317 7.33301 9.33317C14.133 9.33317 12.3997 5.73317 20.6663 38.5332C25.4663 57.5998 25.4663 57.7332 22.6663 59.5998C18.933 62.2665 19.0663 69.8665 22.933 72.5332C24.533 73.7332 26.933 74.6665 27.9997 74.6665C31.0663 74.6665 35.9997 69.0665 35.9997 65.5998C35.9997 62.9332 36.6663 62.6665 44.6663 62.6665H53.333V66.5332C53.333 70.6665 57.333 74.6665 61.333 74.6665C63.9997 74.6665 69.333 69.1998 69.333 66.5332C69.333 65.4665 68.3997 63.1998 67.1997 61.5998C65.333 58.7998 64.2663 58.6665 48.133 58.6665C33.733 58.6665 30.7997 58.2665 30.133 56.5332C27.9997 50.7998 28.3997 50.6665 49.0663 50.6665H68.7997L72.533 34.9332C74.6663 26.3998 76.6663 18.5332 77.0663 17.5998C77.4663 16.3998 71.333 15.9998 48.7997 15.9998H19.9997L18.533 9.99983L17.0663 3.99983H9.19967C2.26634 3.99983 1.33301 4.2665 1.33301 6.6665ZM30.6663 25.9998C30.6663 29.9998 30.2663 30.6665 27.4663 30.6665C23.733 30.6665 23.4663 30.2665 22.133 24.9332C21.333 21.4665 21.4663 21.3332 25.9997 21.3332C30.3997 21.3332 30.6663 21.5998 30.6663 25.9998ZM43.9997 25.9998C43.9997 30.2665 43.5997 30.6665 40.133 30.6665C36.7997 30.6665 36.2663 30.1332 35.733 25.9998C35.1997 21.4665 35.333 21.3332 39.5997 21.3332C43.733 21.3332 43.9997 21.5998 43.9997 25.9998ZM57.333 22.9332C57.1997 27.8665 55.4663 30.6665 52.533 30.6665C49.733 30.6665 49.333 29.9998 49.333 25.9998C49.333 21.7332 49.5997 21.3332 53.333 21.3332C55.5997 21.3332 57.333 21.9998 57.333 22.9332ZM70.133 24.2665C69.733 25.9998 69.333 28.1332 69.333 28.9332C69.333 29.9998 67.5997 30.6665 65.333 30.6665C62.2663 30.6665 61.333 29.9998 61.333 28.1332C61.333 23.1998 62.933 21.3332 66.933 21.3332C70.533 21.3332 70.933 21.7332 70.133 24.2665ZM31.9997 38.5332C31.9997 39.9998 32.3997 41.9998 32.7997 43.1998C33.733 45.5998 29.8663 47.7332 27.9997 45.8665C27.4663 45.1998 26.533 42.6665 25.9997 40.2665C25.1997 36.2665 25.333 35.9998 28.533 35.9998C31.0663 35.9998 31.9997 36.6665 31.9997 38.5332ZM43.9997 40.6665C43.9997 43.7332 43.1997 45.7332 41.8663 46.2665C39.1997 47.1998 37.333 44.5332 37.333 39.5998C37.333 36.6665 37.8663 35.9998 40.6663 35.9998C43.5997 35.9998 43.9997 36.5332 43.9997 40.6665ZM54.3997 40.9332C54.133 44.5332 53.333 46.1332 51.733 46.3998C49.733 46.7998 49.333 45.8665 49.333 41.4665C49.333 36.7998 49.733 35.9998 52.133 35.9998C54.3997 35.9998 54.7997 36.6665 54.3997 40.9332ZM65.9997 40.2665C64.7997 45.8665 64.2663 46.6665 61.8663 46.6665C60.533 46.6665 59.9997 45.0665 59.9997 41.3332C59.9997 36.5332 60.2663 35.9998 63.4663 35.9998C66.6663 35.9998 66.7997 36.2665 65.9997 40.2665ZM30.3997 65.7332C30.933 68.5332 27.0663 70.2665 25.0663 68.2665C23.9997 67.1998 23.9997 66.1332 25.333 64.6665C27.4663 62.1332 29.8663 62.6665 30.3997 65.7332ZM63.733 65.7332C64.2663 68.5332 60.3997 70.2665 58.3997 68.2665C57.333 67.1998 57.333 66.1332 58.6663 64.6665C60.7997 62.1332 63.1997 62.6665 63.733 65.7332Z" fill="black"/>
</g>
<defs>
<clipPath id="clip0_1204_500">
<rect width="77.3333" height="78.6667" fill="white"/>
</clipPath>
</defs>
</svg>
