<svg width="79" height="79" viewBox="0 0 79 79" fill="none" xmlns="http://www.w3.org/2000/svg">
<path d="M6.66629 10.0002C6.66629 11.7335 5.46629 16.2668 3.99963 20.0002C0.799626 28.0002 0.666293 31.0668 3.33296 33.3335C4.79963 34.5335 5.33296 39.0668 5.59963 53.0668L5.99963 71.3335H39.333H72.6663L73.0663 53.0668C73.333 39.0668 73.8663 34.5335 75.333 33.3335C77.9996 31.0668 77.8663 28.0002 74.6663 20.0002C73.1996 16.2668 71.9996 11.7335 71.9996 10.0002V6.66683H39.333H6.66629V10.0002ZM69.333 12.0002C69.333 12.8002 58.3996 13.3335 39.333 13.3335C20.2663 13.3335 9.33296 12.8002 9.33296 12.0002C9.33296 11.2002 20.2663 10.6668 39.333 10.6668C58.3996 10.6668 69.333 11.2002 69.333 12.0002ZM17.333 20.6668C17.333 25.3335 17.333 25.3335 11.333 25.3335C7.99963 25.3335 5.33296 25.0668 5.33296 24.6668C5.33296 24.1335 6.26629 22.1335 7.33296 20.0002C8.93296 16.9335 10.2663 16.0002 13.333 16.0002C17.0663 16.0002 17.333 16.4002 17.333 20.6668ZM30.6663 20.6668C30.6663 25.2002 30.533 25.3335 25.333 25.3335C19.8663 25.3335 19.333 24.6668 20.7996 18.9335C21.4663 16.6668 22.6663 16.0002 26.133 16.0002C30.3996 16.0002 30.6663 16.2668 30.6663 20.6668ZM44.2663 20.6668C44.7996 25.3335 44.7996 25.3335 39.333 25.3335C33.8663 25.3335 33.8663 25.3335 34.3996 20.6668C34.933 16.4002 35.333 16.0002 39.333 16.0002C43.333 16.0002 43.733 16.4002 44.2663 20.6668ZM57.333 17.6002C57.333 18.5335 57.733 20.6668 58.133 22.2668C58.933 25.0668 58.533 25.3335 53.4663 25.3335C48.133 25.3335 47.9996 25.2002 47.9996 20.6668C47.9996 16.2668 48.2663 16.0002 52.6663 16.0002C55.4663 16.0002 57.333 16.6668 57.333 17.6002ZM71.333 20.0002C72.3996 22.1335 73.333 24.1335 73.333 24.6668C73.333 25.0668 70.6663 25.3335 67.333 25.3335C61.333 25.3335 61.333 25.3335 61.333 20.6668C61.333 16.4002 61.5996 16.0002 65.333 16.0002C68.3996 16.0002 69.733 16.9335 71.333 20.0002ZM14.6663 31.4668C12.6663 33.7335 6.53296 33.4668 5.59963 30.9335C5.33296 29.8668 6.79963 29.3335 10.6663 29.3335C15.5996 29.3335 16.133 29.6002 14.6663 31.4668ZM29.333 31.3335C28.3996 32.4002 26.2663 33.3335 24.6663 33.3335C23.0663 33.3335 20.933 32.4002 19.9996 31.3335C18.533 29.6002 19.1996 29.3335 24.6663 29.3335C30.133 29.3335 30.7996 29.6002 29.333 31.3335ZM43.9996 31.3335C43.0663 32.4002 40.933 33.3335 39.333 33.3335C37.733 33.3335 35.5996 32.4002 34.6663 31.3335C33.1996 29.6002 33.8663 29.3335 39.333 29.3335C44.7996 29.3335 45.4663 29.6002 43.9996 31.3335ZM58.6663 31.3335C57.733 32.4002 55.5996 33.3335 53.9996 33.3335C52.3996 33.3335 50.2663 32.4002 49.333 31.3335C47.8663 29.6002 48.533 29.3335 53.9996 29.3335C59.4663 29.3335 60.133 29.6002 58.6663 31.3335ZM73.0663 30.9335C72.133 33.4668 65.9996 33.7335 63.9996 31.4668C62.533 29.6002 63.0663 29.3335 67.9996 29.3335C71.8663 29.3335 73.333 29.8668 73.0663 30.9335ZM28.533 36.0002C32.133 34.9335 33.8663 34.9335 36.133 36.0002C38.2663 37.2002 39.8663 37.2002 42.3996 36.1335C44.7996 34.9335 46.7996 34.9335 50.2663 36.1335C53.8663 37.3335 55.333 37.2002 57.5996 35.7335C59.9996 34.1335 61.0663 34.1335 64.933 35.8668L69.333 37.8668V53.6002C69.333 63.2002 68.7996 69.3335 67.9996 69.3335C67.1996 69.3335 66.6663 63.6002 66.6663 54.6668V39.8668L57.0663 40.2668L47.333 40.6668L46.933 54.9335L46.533 69.3335H27.9996H9.33296V53.6002V37.8668L13.733 35.8668C17.333 34.2668 18.3996 34.1335 20.933 35.7335C23.333 37.2002 24.7996 37.2002 28.533 36.0002ZM62.6663 56.6668V69.3335H56.6663H50.6663V63.4668C50.6663 60.0002 51.333 57.2002 52.3996 56.8002C53.733 56.1335 53.733 55.8668 52.3996 55.2002C51.4663 54.8002 50.6663 52.1335 50.6663 49.2002V44.0002H56.6663H62.6663V56.6668Z" fill="black"/>
<path d="M12 51.3337V62.667H28H44V51.3337V40.0003H28H12V51.3337ZM41.3333 51.3337V58.667H28.6667H16V51.3337V44.0003H28.6667H41.3333V51.3337Z" fill="black"/>
<path d="M31.3325 50.6667C28.5325 53.6 26.5325 56.4 27.0658 56.9334C28.1325 57.8667 38.6658 48.2667 38.6658 46.4C38.6658 44.1334 36.3992 45.4667 31.3325 50.6667Z" fill="black"/>
<path d="M34.6659 54.0003C33.7326 55.2003 33.3326 56.4003 33.7326 56.9337C34.7992 57.867 38.6659 54.9337 38.6659 53.2003C38.6659 51.3337 36.5326 51.7337 34.6659 54.0003Z" fill="black"/>
</svg>
