<svg width="71" height="71" viewBox="0 0 71 71" fill="none" xmlns="http://www.w3.org/2000/svg">
<g clip-path="url(#clip0_1206_526)">
<path d="M1.60039 18.9331C-0.666276 21.1998 -0.666276 49.4664 1.60039 51.7331C3.86706 53.9998 61.4671 53.9998 63.7337 51.7331C64.6671 50.7998 65.3337 48.3998 65.3337 46.3998C65.3337 43.9998 66.0004 42.6664 67.3337 42.6664C68.9337 42.6664 69.3337 40.9331 69.3337 35.3331C69.3337 29.7331 68.9337 27.9998 67.3337 27.9998C66.0004 27.9998 65.3337 26.6664 65.3337 24.2664C65.3337 22.2664 64.6671 19.8664 63.7337 18.9331C61.4671 16.6664 3.86706 16.6664 1.60039 18.9331ZM61.3337 35.3331V49.3331H32.6671H4.00039V35.3331V21.3331H32.6671H61.3337V35.3331Z" fill="url(#paint0_linear_1206_526)"/>
<path d="M6.66699 34.6665V46.6665H10.667H14.667V34.6665V22.6665H10.667H6.66699V34.6665Z" fill="url(#paint1_linear_1206_526)"/>
<path d="M17.334 34.5332V46.6665H22.0007H26.8007L26.4007 34.9332L26.0007 23.3332L21.734 22.9332L17.334 22.5332V34.5332Z" fill="url(#paint2_linear_1206_526)"/>
<path d="M28 34.5332V46.6665H32.6667H37.4667L37.0667 34.9332L36.6667 23.3332L32.4 22.9332L28 22.5332V34.5332Z" fill="url(#paint3_linear_1206_526)"/>
<path d="M39.6003 23.5998C39.067 23.9998 38.667 29.4665 38.667 35.5998V46.6665H43.3337H48.0003V34.6665V22.6665H44.267C42.1337 22.6665 40.0003 23.0665 39.6003 23.5998Z" fill="url(#paint4_linear_1206_526)"/>
</g>
<defs>
<linearGradient id="paint0_linear_1206_526" x1="-0.0996099" y1="35.3331" x2="69.3337" y2="35.3331" gradientUnits="userSpaceOnUse">
<stop stop-color="#FFC700"/>
<stop offset="1" stop-color="#CA84FF"/>
</linearGradient>
<linearGradient id="paint1_linear_1206_526" x1="6.66699" y1="34.6665" x2="14.667" y2="34.6665" gradientUnits="userSpaceOnUse">
<stop stop-color="#FFC700"/>
<stop offset="1" stop-color="#CA84FF"/>
</linearGradient>
<linearGradient id="paint2_linear_1206_526" x1="17.334" y1="34.5998" x2="26.8007" y2="34.5998" gradientUnits="userSpaceOnUse">
<stop stop-color="#FFC700"/>
<stop offset="1" stop-color="#CA84FF"/>
</linearGradient>
<linearGradient id="paint3_linear_1206_526" x1="28" y1="34.5998" x2="37.4667" y2="34.5998" gradientUnits="userSpaceOnUse">
<stop stop-color="#FFC700"/>
<stop offset="1" stop-color="#CA84FF"/>
</linearGradient>
<linearGradient id="paint4_linear_1206_526" x1="38.667" y1="34.6665" x2="48.0003" y2="34.6665" gradientUnits="userSpaceOnUse">
<stop stop-color="#FFC700"/>
<stop offset="1" stop-color="#CA84FF"/>
</linearGradient>
<clipPath id="clip0_1206_526">
<rect width="70.6667" height="70.6667" fill="white"/>
</clipPath>
</defs>
</svg>
