<svg width="48" height="56" viewBox="0 0 48 56" fill="none" xmlns="http://www.w3.org/2000/svg">
<path d="M5.30301 27.7038L5.33224 38.4202L14.438 43.7784V50.0524L0.00324859 41.5864V24.5701L5.30301 27.7038ZM5.30301 16.9874V23.2321L0 20.0951V13.8504L5.30301 10.7134L10.632 13.8504L5.30301 16.9874ZM18.2407 13.8504L23.5437 10.7134L28.8727 13.8504L23.5437 16.9874L18.2407 13.8504Z" fill="black" fill-opacity="0.5"/>
<path d="M9.13477 36.199V29.925L14.4378 33.062V39.3068L9.13477 36.199ZM18.2405 46.0256L23.5435 49.1626L28.8725 46.0256V52.2704L23.5435 55.4074L18.2405 52.2704V46.0256ZM36.4779 13.8504L41.7809 10.7134L47.1099 13.8504V20.0951L41.7809 23.2321V16.9874L36.4779 13.8504ZM41.7809 38.4202L41.8101 27.7038L47.1132 24.5668V41.5832L32.6784 50.0492V43.7752L41.7809 38.4202Z" fill="black" fill-opacity="0.5"/>
<path d="M37.9783 36.1988L32.6753 39.3066V33.0618L37.9783 29.9248V36.1988Z" fill="black" fill-opacity="0.5"/>
<path d="M37.9782 19.2084L38.0074 25.4824L28.8757 30.8406V41.583L23.5727 44.6908L18.2697 41.583V30.8406L9.13801 25.4824V19.2084L14.4638 16.0714L23.5402 21.4556L32.6719 16.0714L38.0009 19.2084H37.9782ZM9.13477 8.49521L23.5435 0L37.9782 8.49521L32.6752 11.6322L23.5435 6.24801L14.4378 11.6322L9.13477 8.49521Z" fill="black" fill-opacity="0.5"/>
</svg>
