<svg width="41" height="41" viewBox="0 0 41 41" fill="none" xmlns="http://www.w3.org/2000/svg">
<path fill-rule="evenodd" clip-rule="evenodd" d="M6.34472 0H33.8163C34.8661 0 35.741 0.175176 36.7909 0.700706C38.0157 1.22624 38.7156 2.10212 39.0656 2.80283C39.0656 2.80283 39.0656 2.978 39.2406 2.978C39.7655 3.85389 40.1155 4.90495 40.1155 6.13118C40.1155 7.18224 39.9405 8.2333 39.2406 9.28436L21.9178 39.0644C21.5678 39.7651 20.8679 40.1155 19.993 40.1155C19.2931 40.1155 18.5932 39.7651 18.0682 39.0644L1.09539 9.28436C0.745429 8.58365 0.045517 7.70777 0.045517 6.30636C-0.129461 5.08012 0.220494 4.02906 0.745428 2.978C1.27036 1.92694 2.14525 1.05106 3.3701 0.700706C4.41996 -6.78687e-07 5.64481 0 6.34472 0ZM17.8933 4.20424H6.34472C5.64481 4.20424 5.29485 4.20424 5.11988 4.37942C4.76992 4.55459 4.59494 4.72977 4.41996 5.08012C4.24499 5.2553 4.24499 5.60565 4.24499 5.95601C4.24499 6.13118 4.41996 6.30636 4.76992 7.00707L17.8933 29.78V4.20424ZM22.0927 4.20424V29.9552L35.3911 7.00707C35.566 6.65671 35.566 6.30636 35.566 5.95601C35.566 5.60565 35.566 5.2553 35.3911 5.08012C35.2161 4.90495 35.2161 4.72977 35.0411 4.72977L34.8661 4.55459C34.5162 4.37942 34.1662 4.37942 33.6413 4.37942H22.0927V4.20424Z" fill="black" fill-opacity="0.5"/>
</svg>
